<svg width="347" height="347" viewBox="0 0 347 347" fill="none" xmlns="http://www.w3.org/2000/svg">
<path d="M212.028 51.183C215.458 48.6997 220.312 50.4559 221.359 54.5593L223.831 64.2437C224.724 67.7428 228.484 69.6658 231.844 68.3423L241.143 64.6792C245.084 63.1271 249.348 66.0352 249.342 70.2702L249.328 80.2651C249.323 83.8764 252.486 86.6739 256.07 86.2275L265.988 84.9922C270.191 84.4687 273.598 88.3461 272.539 92.4465L270.04 102.124C269.137 105.62 271.505 109.117 275.087 109.576L285.001 110.846C289.201 111.384 291.537 115.987 289.492 119.695L284.664 128.447C282.92 131.609 284.344 135.584 287.7 136.919L296.986 140.615C300.921 142.181 302.039 147.22 299.136 150.303L292.284 157.58C289.808 160.209 290.198 164.413 293.116 166.541L301.192 172.43C304.614 174.925 304.444 180.084 300.865 182.348L292.418 187.692C289.366 189.623 288.699 193.792 290.996 196.579L297.354 204.291C300.047 207.559 298.6 212.514 294.57 213.817L285.06 216.892C281.624 218.003 279.941 221.876 281.473 225.146L285.712 234.197C287.509 238.032 284.874 242.471 280.647 242.731L270.671 243.344C267.067 243.566 264.473 246.899 265.144 250.447L266.999 260.268C267.786 264.43 264.13 268.074 259.971 267.274L250.156 265.388C246.61 264.706 243.269 267.289 243.036 270.893L242.391 280.867C242.117 285.093 237.67 287.713 233.841 285.905L224.803 281.636C221.538 280.094 217.66 281.765 216.538 285.198L213.433 294.698C212.117 298.723 207.158 300.156 203.899 297.451L196.206 291.07C193.427 288.764 189.255 289.418 187.315 292.463L181.945 300.893C179.669 304.465 174.51 304.619 172.025 301.189L166.162 293.095C164.043 290.17 159.84 289.766 157.203 292.234L149.905 299.063C146.813 301.956 141.777 300.822 140.224 296.883L136.558 287.585C135.233 284.225 131.262 282.788 128.094 284.522L119.327 289.322C115.613 291.356 111.017 289.005 110.492 284.803L109.254 274.885C108.806 271.302 105.317 268.923 101.818 269.815L92.1327 272.283C88.029 273.329 84.1624 269.91 84.6992 265.709L85.9659 255.794C86.4235 252.212 83.6361 249.04 80.0247 249.034L70.0298 249.017C65.7949 249.009 62.9003 244.735 64.4648 240.8L68.1573 231.512C69.4915 228.156 67.5804 224.391 64.0841 223.487L54.4075 220.984C50.3075 219.924 48.5667 215.064 51.0607 211.642L56.947 203.564C59.0738 200.645 58.1592 196.523 54.9976 194.778L46.2474 189.947C42.5399 187.9 42.0623 182.761 45.3291 180.066L53.0394 173.706C55.8252 171.408 55.9645 167.187 53.3363 164.711L46.0623 157.856C42.9802 154.952 43.7958 149.855 47.6302 148.057L56.6799 143.814C59.9497 142.281 61.1342 138.228 59.2044 135.175L53.8637 126.727C51.6007 123.147 53.6583 118.413 57.8193 117.626L67.6398 115.767C71.1881 115.095 73.3434 111.464 72.2334 108.027L69.1614 98.5161C67.8598 94.4861 71.03 90.4125 75.2562 90.6843L85.2305 91.326C88.8344 91.5579 91.825 88.5767 91.6045 84.9721L90.9944 74.9959C90.7358 70.7688 94.8195 67.6115 98.8453 68.9259L108.347 72.0279C111.78 73.1487 115.418 71.005 116.101 67.4588L117.991 57.6442C118.791 53.4857 123.532 51.4432 127.104 53.7174L135.536 59.0849C138.582 61.0242 142.639 59.8525 144.182 56.5876L148.454 47.5514C150.264 43.7227 155.363 42.9232 158.258 46.0145L165.09 53.3101C167.558 55.9461 171.779 55.8202 174.086 53.0416L180.47 45.3516C183.175 42.0932 188.313 42.5871 190.348 46.3011L195.151 55.0665C196.886 58.2336 201.006 59.1612 203.931 57.0437L212.028 51.183Z" fill="white"/>
<path d="M88.0174 133H95.8474C97.8474 133 99.5474 133.68 100.947 135.04C102.327 136.4 103.017 138.07 103.017 140.05C103.017 142.03 102.327 143.7 100.947 145.06C99.5474 146.42 97.8474 147.1 95.8474 147.1H92.1574V154H88.0174V133ZM92.1574 143.23H95.8474C96.7274 143.23 97.4574 142.93 98.0374 142.33C98.6174 141.71 98.9074 140.95 98.9074 140.05C98.9074 139.13 98.6174 138.37 98.0374 137.77C97.4574 137.17 96.7274 136.87 95.8474 136.87H92.1574V143.23ZM109.08 139V141.58C109.42 140.64 110 139.93 110.82 139.45C111.64 138.95 112.58 138.7 113.64 138.7V143.02C112.46 142.86 111.4 143.1 110.46 143.74C109.54 144.36 109.08 145.39 109.08 146.83V154H105.21V139H109.08ZM117.824 137.2C117.184 137.2 116.624 136.97 116.144 136.51C115.684 136.03 115.454 135.47 115.454 134.83C115.454 134.19 115.684 133.63 116.144 133.15C116.624 132.67 117.184 132.43 117.824 132.43C118.484 132.43 119.044 132.67 119.504 133.15C119.984 133.63 120.224 134.19 120.224 134.83C120.224 135.47 119.984 136.03 119.504 136.51C119.044 136.97 118.484 137.2 117.824 137.2ZM119.774 154H115.904V139H119.774V154ZM130.456 154.42C128.196 154.42 126.306 153.66 124.786 152.14C123.286 150.62 122.536 148.74 122.536 146.5C122.536 144.26 123.286 142.38 124.786 140.86C126.306 139.34 128.196 138.58 130.456 138.58C131.916 138.58 133.246 138.93 134.446 139.63C135.646 140.33 136.556 141.27 137.176 142.45L133.846 144.4C133.546 143.78 133.086 143.29 132.466 142.93C131.866 142.57 131.186 142.39 130.426 142.39C129.266 142.39 128.306 142.78 127.546 143.56C126.786 144.32 126.406 145.3 126.406 146.5C126.406 147.66 126.786 148.64 127.546 149.44C128.306 150.2 129.266 150.58 130.426 150.58C131.206 150.58 131.896 150.41 132.496 150.07C133.116 149.71 133.576 149.22 133.876 148.6L137.236 150.52C136.576 151.72 135.636 152.67 134.416 153.37C133.216 154.07 131.896 154.42 130.456 154.42ZM153.628 148.09H142.318C142.818 149.97 144.228 150.91 146.548 150.91C148.028 150.91 149.148 150.41 149.908 149.41L153.028 151.21C151.548 153.35 149.368 154.42 146.488 154.42C144.008 154.42 142.018 153.67 140.518 152.17C139.018 150.67 138.268 148.78 138.268 146.5C138.268 144.26 139.008 142.38 140.488 140.86C141.948 139.34 143.848 138.58 146.188 138.58C148.408 138.58 150.218 139.34 151.618 140.86C153.058 142.38 153.778 144.26 153.778 146.5C153.778 146.92 153.728 147.45 153.628 148.09ZM142.258 145.09H149.908C149.688 144.11 149.238 143.36 148.558 142.84C147.898 142.32 147.108 142.06 146.188 142.06C145.148 142.06 144.288 142.33 143.608 142.87C142.928 143.39 142.478 144.13 142.258 145.09ZM173.25 154H168.54L162.66 133H167.01L171.03 148.57L175.41 133H178.95L183.36 148.57L187.38 133H191.73L185.85 154H181.14L177.18 140.14L173.25 154ZM204.944 152.14C203.424 153.66 201.544 154.42 199.304 154.42C197.064 154.42 195.184 153.66 193.664 152.14C192.144 150.62 191.384 148.74 191.384 146.5C191.384 144.28 192.144 142.41 193.664 140.89C195.204 139.35 197.084 138.58 199.304 138.58C201.524 138.58 203.404 139.35 204.944 140.89C206.484 142.43 207.254 144.3 207.254 146.5C207.254 148.72 206.484 150.6 204.944 152.14ZM196.394 149.47C197.174 150.25 198.144 150.64 199.304 150.64C200.464 150.64 201.434 150.25 202.214 149.47C202.994 148.69 203.384 147.7 203.384 146.5C203.384 145.3 202.994 144.31 202.214 143.53C201.434 142.75 200.464 142.36 199.304 142.36C198.144 142.36 197.174 142.75 196.394 143.53C195.634 144.33 195.254 145.32 195.254 146.5C195.254 147.68 195.634 148.67 196.394 149.47ZM213.846 139V141.58C214.186 140.64 214.766 139.93 215.586 139.45C216.406 138.95 217.346 138.7 218.406 138.7V143.02C217.226 142.86 216.166 143.1 215.226 143.74C214.306 144.36 213.846 145.39 213.846 146.83V154H209.976V139H213.846ZM229.66 139V142.72H226.27V148.96C226.27 149.48 226.4 149.86 226.66 150.1C226.92 150.34 227.3 150.48 227.8 150.52C228.3 150.54 228.92 150.53 229.66 150.49V154C227.04 154.3 225.17 154.06 224.05 153.28C222.95 152.48 222.4 151.04 222.4 148.96V142.72H219.79V139H222.4V135.97L226.27 134.8V139H229.66ZM240.728 138.58C242.388 138.58 243.738 139.13 244.778 140.23C245.858 141.35 246.398 142.87 246.398 144.79V154H242.528V145.27C242.528 144.29 242.258 143.53 241.718 142.99C241.198 142.45 240.478 142.18 239.558 142.18C238.538 142.18 237.728 142.5 237.128 143.14C236.548 143.76 236.258 144.68 236.258 145.9V154H232.388V133H236.258V140.68C237.178 139.28 238.668 138.58 240.728 138.58Z" fill="#161E26"/>
<path d="M100.381 196.312L99.4474 199.866H82.304L83.2244 196.312H100.381ZM91.4702 216L82.7259 205.594L82.7386 202.398H87.0597C88.0227 202.398 88.8281 202.219 89.4759 201.861C90.1236 201.503 90.6094 201.017 90.9332 200.403C91.2571 199.79 91.4233 199.091 91.4318 198.307C91.4233 197.131 91.0781 196.172 90.3963 195.43C89.723 194.68 88.6108 194.305 87.0597 194.305H82.304L83.3523 189.818H87.0597C89.233 189.818 91.044 190.146 92.4929 190.803C93.9503 191.45 95.0412 192.375 95.7656 193.577C96.4986 194.778 96.8693 196.21 96.8778 197.872C96.8693 199.347 96.6222 200.634 96.1364 201.733C95.6591 202.832 94.9048 203.749 93.8736 204.482C92.8509 205.214 91.517 205.76 89.8722 206.118L89.6676 206.195L97.4915 215.77V216H91.4702ZM100.406 189.818L99.4474 193.423H85.3338L86.2926 189.818H100.406ZM123.517 189.818V216H117.981V195.072H117.828L111.832 198.831V193.922L118.314 189.818H123.517ZM134.303 212.42L134.163 213.827C134.052 214.952 133.839 216.072 133.523 217.189C133.217 218.314 132.893 219.332 132.552 220.244C132.219 221.156 131.951 221.872 131.746 222.392H128.218C128.346 221.889 128.521 221.186 128.742 220.283C128.964 219.388 129.173 218.382 129.369 217.266C129.565 216.149 129.688 215.011 129.739 213.852L129.803 212.42H134.303ZM148.583 216.358C146.776 216.358 145.165 216.026 143.751 215.361C142.344 214.696 141.228 213.78 140.401 212.612C139.575 211.445 139.144 210.107 139.11 208.598H144.479C144.539 209.612 144.965 210.435 145.758 211.065C146.55 211.696 147.492 212.011 148.583 212.011C149.452 212.011 150.219 211.82 150.884 211.436C151.558 211.044 152.082 210.503 152.457 209.812C152.84 209.114 153.032 208.312 153.032 207.409C153.032 206.489 152.836 205.679 152.444 204.98C152.06 204.281 151.528 203.736 150.846 203.344C150.164 202.952 149.384 202.751 148.506 202.743C147.739 202.743 146.994 202.901 146.269 203.216C145.553 203.531 144.995 203.962 144.594 204.507L139.673 203.625L140.913 189.818H156.918V194.344H145.477L144.799 200.902H144.952C145.413 200.254 146.107 199.717 147.036 199.291C147.965 198.865 149.005 198.652 150.156 198.652C151.732 198.652 153.138 199.023 154.374 199.764C155.61 200.506 156.586 201.524 157.302 202.82C158.018 204.107 158.371 205.589 158.363 207.268C158.371 209.033 157.962 210.601 157.136 211.973C156.317 213.337 155.171 214.411 153.697 215.195C152.231 215.97 150.526 216.358 148.583 216.358ZM172.489 216.575C170.29 216.567 168.398 216.026 166.813 214.952C165.237 213.878 164.022 212.322 163.17 210.286C162.326 208.249 161.908 205.798 161.917 202.935C161.917 200.08 162.339 197.646 163.183 195.635C164.035 193.624 165.249 192.094 166.826 191.045C168.411 189.989 170.299 189.46 172.489 189.46C174.68 189.46 176.563 189.989 178.14 191.045C179.725 192.102 180.944 193.636 181.796 195.648C182.648 197.651 183.07 200.08 183.062 202.935C183.062 205.807 182.636 208.261 181.783 210.298C180.94 212.335 179.729 213.891 178.153 214.964C176.576 216.038 174.688 216.575 172.489 216.575ZM172.489 211.986C173.989 211.986 175.187 211.232 176.082 209.723C176.977 208.214 177.42 205.952 177.411 202.935C177.411 200.949 177.207 199.295 176.798 197.974C176.397 196.653 175.826 195.661 175.085 194.996C174.352 194.331 173.487 193.999 172.489 193.999C170.998 193.999 169.805 194.744 168.91 196.236C168.015 197.727 167.563 199.96 167.555 202.935C167.555 204.946 167.755 206.625 168.156 207.972C168.565 209.31 169.14 210.315 169.881 210.989C170.623 211.653 171.492 211.986 172.489 211.986ZM191.924 212.42L191.784 213.827C191.673 214.952 191.46 216.072 191.145 217.189C190.838 218.314 190.514 219.332 190.173 220.244C189.841 221.156 189.572 221.872 189.368 222.392H185.839C185.967 221.889 186.142 221.186 186.363 220.283C186.585 219.388 186.794 218.382 186.99 217.266C187.186 216.149 187.309 215.011 187.36 213.852L187.424 212.42H191.924ZM206.064 216.575C203.865 216.567 201.973 216.026 200.387 214.952C198.811 213.878 197.596 212.322 196.744 210.286C195.9 208.249 195.483 205.798 195.491 202.935C195.491 200.08 195.913 197.646 196.757 195.635C197.609 193.624 198.824 192.094 200.4 191.045C201.985 189.989 203.873 189.46 206.064 189.46C208.254 189.46 210.137 189.989 211.714 191.045C213.299 192.102 214.518 193.636 215.37 195.648C216.223 197.651 216.645 200.08 216.636 202.935C216.636 205.807 216.21 208.261 215.358 210.298C214.514 212.335 213.304 213.891 211.727 214.964C210.15 216.038 208.262 216.575 206.064 216.575ZM206.064 211.986C207.564 211.986 208.761 211.232 209.656 209.723C210.551 208.214 210.994 205.952 210.985 202.935C210.985 200.949 210.781 199.295 210.372 197.974C209.971 196.653 209.4 195.661 208.659 194.996C207.926 194.331 207.061 193.999 206.064 193.999C204.572 193.999 203.379 194.744 202.484 196.236C201.589 197.727 201.137 199.96 201.129 202.935C201.129 204.946 201.329 206.625 201.73 207.972C202.139 209.31 202.714 210.315 203.456 210.989C204.197 211.653 205.066 211.986 206.064 211.986ZM230.849 216.575C228.65 216.567 226.758 216.026 225.173 214.952C223.596 213.878 222.381 212.322 221.529 210.286C220.685 208.249 220.268 205.798 220.276 202.935C220.276 200.08 220.698 197.646 221.542 195.635C222.394 193.624 223.609 192.094 225.185 191.045C226.771 189.989 228.658 189.46 230.849 189.46C233.039 189.46 234.923 189.989 236.499 191.045C238.085 192.102 239.303 193.636 240.156 195.648C241.008 197.651 241.43 200.08 241.421 202.935C241.421 205.807 240.995 208.261 240.143 210.298C239.299 212.335 238.089 213.891 236.512 214.964C234.935 216.038 233.048 216.575 230.849 216.575ZM230.849 211.986C232.349 211.986 233.546 211.232 234.441 209.723C235.336 208.214 235.779 205.952 235.771 202.935C235.771 200.949 235.566 199.295 235.157 197.974C234.756 196.653 234.185 195.661 233.444 194.996C232.711 194.331 231.846 193.999 230.849 193.999C229.357 193.999 228.164 194.744 227.269 196.236C226.374 197.727 225.923 199.96 225.914 202.935C225.914 204.946 226.114 206.625 226.515 207.972C226.924 209.31 227.499 210.315 228.241 210.989C228.982 211.653 229.852 211.986 230.849 211.986ZM255.634 216.575C253.435 216.567 251.543 216.026 249.958 214.952C248.381 213.878 247.167 212.322 246.314 210.286C245.471 208.249 245.053 205.798 245.061 202.935C245.061 200.08 245.483 197.646 246.327 195.635C247.179 193.624 248.394 192.094 249.971 191.045C251.556 189.989 253.444 189.46 255.634 189.46C257.824 189.46 259.708 189.989 261.284 191.045C262.87 192.102 264.088 193.636 264.941 195.648C265.793 197.651 266.215 200.08 266.206 202.935C266.206 205.807 265.78 208.261 264.928 210.298C264.084 212.335 262.874 213.891 261.297 214.964C259.721 216.038 257.833 216.575 255.634 216.575ZM255.634 211.986C257.134 211.986 258.331 211.232 259.226 209.723C260.121 208.214 260.564 205.952 260.556 202.935C260.556 200.949 260.351 199.295 259.942 197.974C259.542 196.653 258.971 195.661 258.229 194.996C257.496 194.331 256.631 193.999 255.634 193.999C254.142 193.999 252.949 194.744 252.054 196.236C251.159 197.727 250.708 199.96 250.699 202.935C250.699 204.946 250.9 206.625 251.3 207.972C251.709 209.31 252.284 210.315 253.026 210.989C253.767 211.653 254.637 211.986 255.634 211.986Z" fill="#FF0000"/>
</svg>
